<svg id="Layer_1" data-name="Layer 1" xmlns="http://www.w3.org/2000/svg" viewBox="0 0 467.72 295.26"><defs><style>.cls-1,.cls-3{fill:#fff;}.cls-2{fill:#ccc;}.cls-3{font-size:53.86px;font-family:Montserrat-Bold, Montserrat;font-weight:700;}.cls-4,.cls-6{font-family:Montserrat-Regular, Montserrat;font-weight:400;}.cls-4{letter-spacing:0em;}.cls-5{font-family:Montserrat-Thin, Montserrat Thin;font-weight:200;}</style></defs><title>Artboard 1</title><path class="cls-1" d="M225.66,13.47v189.4H102.5c-18.61,0-40.93-20.47-40.93-48.75s26.42-48.74,48-48.74c24.93,0,50.6,17.12,50.6,45.39,0,5.59-1.86,7.82-7.81,7.82H136.5c-3,0-7.82-1-8.93-5.82s-6.47-16.65-16.89-16.65-17.49,8-17.49,16.52c0,11.16,7.45,17.3,19,17.3H171c6.7,0,8.56-5.77,8.56-14.7a68.59,68.59,0,0,0-25.3-52.84c-10.05-8.18-9.68-10-9.68-17.11V13.1s18.61-.74,25.31,28.28c0,0,16.74-9.3,30.51,0C200.36,41.38,210,10.87,225.66,13.47ZM186.22,95.71,194,84.17H178ZM171,55.52a8.19,8.19,0,1,0,8.19,8.19A8.18,8.18,0,0,0,171,55.52Zm30.51,0a8.19,8.19,0,1,0,8.19,8.19A8.18,8.18,0,0,0,201.47,55.52Z"/><path class="cls-2" d="M267,54.78c13.77-9.31,30.51,0,30.51,0,6.7-21.59,25.31-17.49,25.31-17.49v48c0,7.07.37,8.93-9.68,17.11a68.56,68.56,0,0,0-25.3,52.84c0,8.93,1.86,14.7,8.56,14.7h58.79c11.53,0,19-6.14,19-17.3,0-8.56-7.07-16.52-17.48-16.52s-15.77,11.82-16.89,16.65-5.95,5.82-8.93,5.82H315c-5.95,0-7.81-2.23-7.81-7.82,0-28.27,25.67-45.39,50.6-45.39,21.58,0,48,20.46,48,48.74s-22.32,48.75-40.93,48.75H241.66V37.66C257.29,35.05,267,54.78,267,54.78Zm21.21,24.93a8.19,8.19,0,1,0,8.19-8.19A8.19,8.19,0,0,0,288.17,79.71ZM273.38,95.94c0,2.62,3.67,4.73,8.19,4.73s8.18-2.11,8.18-4.73-3.66-4.72-8.18-4.72S273.38,93.33,273.38,95.94ZM257.66,79.71a8.19,8.19,0,1,0,8.19-8.19A8.18,8.18,0,0,0,257.66,79.71Z"/><text class="cls-3" transform="translate(8.69 282.6)">D<tspan class="cls-4" x="44.49" y="0">O</tspan><tspan x="89.67" y="0">G</tspan><tspan class="cls-5" x="131.2" y="0"> </tspan><tspan class="cls-6" x="144.66" y="0">DILIG</tspan><tspan class="cls-5" x="295.03" y="0">EN</tspan><tspan class="cls-6" x="374.95" y="0">CE</tspan></text></svg>